<?xml version="1.0" encoding="UTF-8"?>
<svg version="1.1" xmlns="http://www.w3.org/2000/svg" width="320" height="320">
<path d="M0 0 C105.6 0 211.2 0 320 0 C320 105.6 320 211.2 320 320 C214.4 320 108.8 320 0 320 C0 214.4 0 108.8 0 0 Z " fill="#FDFEFE" transform="translate(0,0)"/>
<path d="M0 0 C3.45269452 1.2932354 6.49675131 2.80399914 9.625 4.75 C12.98026402 6.79744578 16.35019768 8.76449414 19.8125 10.625 C21.87601308 11.74814069 23.93830269 12.87352964 26 14 C26.78439453 14.42587402 27.56878906 14.85174805 28.37695312 15.29052734 C56.82654043 30.81566298 56.82654043 30.81566298 64.05410767 47.42195129 C65.40420418 52.52899244 65.29485507 57.44430797 65.29052734 62.70581055 C65.29724457 63.87895309 65.30396179 65.05209564 65.31088257 66.26078796 C65.32986761 70.13614143 65.33378733 74.01132168 65.3359375 77.88671875 C65.33878611 79.22686145 65.34197829 80.56700347 65.34550858 81.90714455 C65.36399487 88.9289178 65.37218138 95.95061533 65.37060547 102.97241211 C65.36940602 109.4935245 65.39047294 116.01430487 65.4220928 122.53533334 C65.4483489 128.15258056 65.4589688 133.76972001 65.45769465 139.38702804 C65.45718752 142.73368776 65.46460216 146.07981883 65.48405075 149.42645836 C65.50374973 153.16698724 65.49785579 156.90667296 65.48583984 160.6472168 C65.49707886 161.73903259 65.50831787 162.83084839 65.51989746 163.95574951 C65.44101263 173.66923776 63.00256453 182.23197531 57 190 C56.61368408 190.52287598 56.22736816 191.04575195 55.8293457 191.58447266 C51.67580526 196.86392275 46.87111817 199.86308324 41.0625 203.125 C40.09884521 203.67994141 39.13519043 204.23488281 38.14233398 204.80664062 C35.10269355 206.55186989 32.05248763 208.27735733 29 210 C27.08307265 211.0906878 25.16640094 212.18182503 23.25 213.2734375 C18.47453012 215.98663283 13.68895026 218.68146413 8.89990234 221.37060547 C4.05388741 224.09348 -0.7857114 226.82769366 -5.625 229.5625 C-6.5722998 230.09770264 -7.51959961 230.63290527 -8.49560547 231.18432617 C-15.02729954 234.87734443 -21.54803309 238.58918798 -28.0625 242.3125 C-28.92907227 242.8067749 -29.79564453 243.3010498 -30.68847656 243.81030273 C-34.53076596 246.00415698 -38.36546719 248.20803457 -42.17578125 250.45703125 C-42.80798584 250.82723389 -43.44019043 251.19743652 -44.09155273 251.57885742 C-45.72846351 252.53904396 -47.360571 253.50740684 -48.9921875 254.4765625 C-55.56788254 257.80710934 -61.64879259 258.36410074 -68.875 258.375 C-69.72191406 258.39949219 -70.56882813 258.42398437 -71.44140625 258.44921875 C-72.28316406 258.45308594 -73.12492187 258.45695312 -73.9921875 258.4609375 C-74.73839355 258.46915527 -75.48459961 258.47737305 -76.25341797 258.48583984 C-86.22376701 256.72219588 -98.0702914 248.40539367 -106 244 C-106 209.68 -106 175.36 -106 140 C-81.25 140 -56.5 140 -31 140 C-30.75 166.3125 -30.75 166.3125 -30.70214844 174.61450195 C-30.67279011 176.78078351 -30.64196639 178.94704592 -30.609375 181.11328125 C-30.60768311 182.80680725 -30.60768311 182.80680725 -30.60595703 184.5345459 C-30.57622803 186.14806946 -30.57622803 186.14806946 -30.54589844 187.79418945 C-30.53701599 188.72906693 -30.52813354 189.6639444 -30.51898193 190.62715149 C-30.20295406 193.14968724 -30.20295406 193.14968724 -28.08746338 194.78337097 C-19.64949827 199.70124086 -7.90712338 196.86421836 1.25 195.625 C2.18440918 195.49899414 3.11881836 195.37298828 4.08154297 195.24316406 C8.1744 194.6596136 12.16191437 193.98279215 16.17108154 192.96859741 C17.43462463 192.64896027 18.69816772 192.32932312 20 192 C20.09354971 170.92019007 20.16403131 149.84041451 20.20724869 128.76043892 C20.22785097 118.97205785 20.25592688 109.18380596 20.30175781 99.39550781 C20.34169711 90.86142318 20.36744977 82.32743214 20.37635398 73.79325664 C20.38155673 69.27679853 20.39373623 64.76060809 20.42292023 60.24423599 C20.45020156 55.98756231 20.45841948 51.73126491 20.45243073 47.4745121 C20.4535253 45.91773619 20.46140327 44.36094684 20.4768219 42.8042469 C20.58045576 31.79509156 19.58270742 22.5712274 12.25 13.875 C11.56421875 13.05902344 10.8784375 12.24304687 10.171875 11.40234375 C7.38068946 8.31497126 4.47719316 5.37147116 1.46875 2.49609375 C0 1 0 1 0 0 Z " fill="#60D0E0" transform="translate(228,47)"/>
<path d="M0 0 C2.02450289 1.11431755 2.02450289 1.11431755 4.89428711 1.98388672 C4.89428711 36.63388672 4.89428711 71.28388672 4.89428711 106.98388672 C-19.85571289 106.98388672 -44.60571289 106.98388672 -70.10571289 106.98388672 C-70.29321289 80.67138672 -70.29321289 80.67138672 -70.31347656 72.36938477 C-70.33991488 70.20310015 -70.36819027 68.03683683 -70.39868164 65.87060547 C-70.3946936 64.74158813 -70.39070557 63.6125708 -70.38659668 62.44934082 C-70.40629517 61.37365845 -70.42599365 60.29797607 -70.44628906 59.18969727 C-70.45628181 57.78738106 -70.45628181 57.78738106 -70.46647644 56.35673523 C-70.90825911 53.74861941 -70.90825911 53.74861941 -73.49656677 52.18377686 C-77.90900722 50.15459047 -82.19495007 50.51242324 -86.98071289 50.54638672 C-87.91012695 50.52640625 -88.83954102 50.50642578 -89.79711914 50.48583984 C-97.39363625 50.49080489 -104.6021493 51.6704103 -112.06323242 53.01489258 C-113.12719742 53.20343559 -114.19116241 53.39197861 -115.28736877 53.58623505 C-117.89411663 54.04867832 -120.50018121 54.51464821 -123.10571289 54.98388672 C-123.06850219 75.80307947 -123.00857665 96.62209741 -122.92181015 117.44114494 C-122.88204668 127.10838972 -122.84964052 136.77555342 -122.8347168 146.44287109 C-122.82168632 154.87157247 -122.79468605 163.30009522 -122.75109982 171.72869599 C-122.72851638 176.18919745 -122.71280034 180.64947887 -122.71382904 185.11004257 C-122.7145775 189.31429143 -122.69655257 193.51805443 -122.66454506 197.72217751 C-122.6560735 199.25955932 -122.65427738 200.7969958 -122.6599102 202.33439064 C-122.69571127 213.61408592 -121.25914128 222.44393817 -114.29321289 231.60888672 C-113.60614258 232.51509766 -112.91907227 233.42130859 -112.21118164 234.35498047 C-109.28936148 238.00319006 -106.26435343 241.53899438 -103.10571289 244.98388672 C-106.60901594 244.98388672 -107.91580366 244.16639619 -110.93774414 242.45263672 C-112.40655029 241.62892578 -112.40655029 241.62892578 -113.9050293 240.78857422 C-115.48936768 239.89525391 -115.48936768 239.89525391 -117.10571289 238.98388672 C-119.33749162 237.76276841 -121.57060453 236.54408588 -123.80493164 235.32763672 C-125.54749144 234.36966961 -127.29004647 233.41169273 -129.03173828 232.45214844 C-130.21018164 231.80437209 -131.38988214 231.15887776 -132.57080078 230.515625 C-147.50643599 222.37565234 -159.25734767 214.57406244 -165.15174866 198.05180359 C-166.59814096 192.86754225 -166.40884255 187.61681781 -166.41210938 182.2722168 C-166.42043289 181.11028809 -166.42875641 179.94835937 -166.43733215 178.7512207 C-166.46138222 174.91858545 -166.47019884 171.08612063 -166.47680664 167.25341797 C-166.48350842 165.25571951 -166.49021264 163.25802104 -166.49724156 161.2603237 C-166.51867278 154.97961314 -166.52804089 148.69895649 -166.53125 142.41821289 C-166.53487944 135.96689906 -166.56474084 129.51606263 -166.60665458 123.0648945 C-166.64150273 117.50366136 -166.65680095 111.94258531 -166.65749604 106.38124388 C-166.65828414 103.06973419 -166.66922229 99.7588173 -166.6954937 96.44739723 C-166.72252367 92.74535897 -166.71754623 89.04461775 -166.70507812 85.3425293 C-166.71991241 84.26523056 -166.7347467 83.18793182 -166.75003052 82.07798767 C-166.64894503 71.47115379 -162.9328982 62.10270168 -156.10571289 53.98388672 C-155.44571289 53.98388672 -154.78571289 53.98388672 -154.10571289 53.98388672 C-153.77571289 52.99388672 -153.44571289 52.00388672 -153.10571289 50.98388672 C-151.19946289 49.51123047 -151.19946289 49.51123047 -148.60571289 47.92138672 C-147.08977539 46.99132812 -147.08977539 46.99132812 -145.54321289 46.04248047 C-144.39786589 45.35547111 -143.25201503 44.6693012 -142.10571289 43.98388672 C-141.52821289 43.63471191 -140.95071289 43.28553711 -140.35571289 42.92578125 C-130.36651353 36.89512506 -120.1839931 31.21904089 -109.97296143 25.57476807 C-101.68902014 20.99551813 -93.45097641 16.35004037 -85.2800293 11.57202148 C-81.76732026 9.51835561 -78.24272308 7.49651997 -74.67993164 5.53076172 C-71.54240841 3.79708074 -68.43828251 2.01784886 -65.35180664 0.19482422 C-64.55967773 -0.27181641 -63.76754883 -0.73845703 -62.95141602 -1.21923828 C-61.33962522 -2.17088767 -59.73025891 -3.1266548 -58.12329102 -4.08642578 C-36.80337527 -16.59688979 -20.35402065 -11.41055203 0 0 Z " fill="#60D0E0" transform="translate(193.105712890625,26.01611328125)"/>
<path d="M0 0 C0.33 0 0.66 0 1 0 C1 53.13 1 106.26 1 161 C-3.29 161.99 -7.58 162.98 -12 164 C-12.33 164.33 -12.66 164.66 -13 165 C-21.49058216 165.90610956 -30.09039787 166.12182628 -38.625 166.25 C-39.36999756 166.2713501 -40.11499512 166.2927002 -40.88256836 166.31469727 C-46.16174973 166.34756888 -47.93939325 165.53030338 -53 163 C-53.33 145.18 -53.66 127.36 -54 109 C-77.76 108.67 -101.52 108.34 -126 108 C-126 141.99 -126 175.98 -126 211 C-126.33 211 -126.66 211 -127 211 C-127 176.68 -127 142.36 -127 107 C-102.25 107 -77.5 107 -52 107 C-51.75 133.3125 -51.75 133.3125 -51.70214844 141.61450195 C-51.67279011 143.78078351 -51.64196639 145.94704592 -51.609375 148.11328125 C-51.60768311 149.80680725 -51.60768311 149.80680725 -51.60595703 151.5345459 C-51.57622803 153.14806946 -51.57622803 153.14806946 -51.54589844 154.79418945 C-51.53701599 155.72906693 -51.52813354 156.6639444 -51.51898193 157.62715149 C-51.20295406 160.14968724 -51.20295406 160.14968724 -49.08746338 161.78337097 C-40.64949827 166.70124086 -28.90712338 163.86421836 -19.75 162.625 C-18.81559082 162.49899414 -17.88118164 162.37298828 -16.91845703 162.24316406 C-11.44351741 161.46255934 -6.4258865 160.35647163 -1 159 C-0.505 80.295 -0.505 80.295 0 0 Z " fill="#9BDAE2" transform="translate(249,80)"/>
<path d="M0 0 C-2.31 0.66 -4.62 1.32 -7 2 C-7.72266375 6.54357431 -8.12539692 10.90129357 -8.12698364 15.50030518 C-8.12980347 16.76456833 -8.13262329 18.02883148 -8.13552856 19.33140564 C-8.13358463 20.71475234 -8.13153648 22.0980989 -8.12939453 23.48144531 C-8.13075102 24.95229638 -8.13253234 26.4231471 -8.13470459 27.89399719 C-8.13925106 31.87560775 -8.1375004 35.8571923 -8.1343255 39.83880329 C-8.13178559 44.01767863 -8.13414416 48.19655181 -8.13571167 52.37542725 C-8.13752941 59.39628497 -8.13513826 66.41713216 -8.13037109 73.43798828 C-8.12493772 81.53302267 -8.126686 89.62803184 -8.1321975 97.72306561 C-8.13675003 104.69062682 -8.13736847 111.65818046 -8.13475883 118.62574267 C-8.13320672 122.77927993 -8.13297273 126.93280538 -8.13629532 131.08634186 C-8.1392049 134.99665684 -8.13714215 138.90693966 -8.13140106 142.81725121 C-8.13008954 144.24458704 -8.13043989 145.67192563 -8.13266373 147.09926033 C-8.14400686 155.12590392 -7.90956454 163.02142875 -7 171 C-10.4410216 165.83846761 -11.25009212 161.30904741 -11.24050903 155.16629028 C-11.24221788 154.5037118 -11.24392673 153.84113333 -11.24568737 153.15847671 C-11.24896536 150.95205586 -11.23800684 148.74594333 -11.22705078 146.53955078 C-11.2264863 144.95247912 -11.22680395 143.36540693 -11.22793579 141.77833557 C-11.22850886 137.47919524 -11.21676187 133.18016685 -11.20278788 128.88105249 C-11.19027299 124.38472723 -11.18910942 119.88839932 -11.18673706 115.39205933 C-11.18052452 106.88177749 -11.16411675 98.37154713 -11.14403808 89.86128795 C-11.12167205 80.17089301 -11.11068388 70.48049559 -11.10064721 60.79008126 C-11.07975034 40.86002546 -11.04457874 20.93001598 -11 1 C-3.34821429 -1.33928571 -3.34821429 -1.33928571 0 0 Z " fill="#D4F3F7" transform="translate(81,80)"/>
<path d="M0 0 C1 3 1 3 -0.41047668 5.91493225 C-2.82803073 11.19283338 -2.4394752 16.65483761 -2.43237305 22.36108398 C-2.44766052 24.2060421 -2.44766052 24.2060421 -2.46325684 26.08827209 C-2.48818978 29.44324998 -2.50009709 32.79779076 -2.50611091 36.15282321 C-2.51552157 39.66559424 -2.54172703 43.17824001 -2.56611633 46.69093323 C-2.60971126 53.33471061 -2.63830113 59.97846358 -2.66143972 66.62234026 C-2.68852909 74.18954101 -2.7324382 81.75661529 -2.77772844 89.32372558 C-2.87047426 104.88241862 -2.9422009 120.4411355 -3 136 C-2.34 136.33 -1.68 136.66 -1 137 C-0.731875 138.11375 -0.46375 139.2275 -0.1875 140.375 C0.65776427 144.13919929 0.65776427 144.13919929 3.625 145.9375 C4.40875 146.288125 5.1925 146.63875 6 147 C5.67 148.65 5.34 150.3 5 152 C-0.90521519 147.07898734 -3.42081755 140.42506269 -5 133 C-5.09700308 131.33740494 -5.14327036 129.67149204 -5.15390015 128.00610352 C-5.16250061 126.99983414 -5.17110107 125.99356476 -5.17996216 124.95680237 C-5.18422211 123.85859665 -5.18848206 122.76039093 -5.19287109 121.62890625 C-5.20104858 120.46741562 -5.20922607 119.30592499 -5.21765137 118.10923767 C-5.24248825 114.26033033 -5.25901972 110.4114599 -5.2734375 106.5625 C-5.27876118 105.24620605 -5.28408485 103.92991211 -5.28956985 102.57373047 C-5.31119477 97.03712911 -5.32992585 91.50053058 -5.34119225 85.96389771 C-5.35739428 78.05605619 -5.39048426 70.14870887 -5.44759309 62.24105358 C-5.48645931 56.66715866 -5.50584486 51.09339493 -5.51111281 45.51936817 C-5.51474543 42.19772618 -5.52909037 38.87672887 -5.55921555 35.5552063 C-5.59099379 31.83851122 -5.59088355 28.12304645 -5.58349609 24.40625 C-5.59990143 23.32423813 -5.61630676 22.24222626 -5.63320923 21.12742615 C-5.56903906 13.19087336 -3.48159719 7.10064286 0 0 Z " fill="#6EC8D6" transform="translate(32,87)"/>
<path d="M0 0 C0.66 0.33 1.32 0.66 2 1 C2.9841955 3.95258649 3.12790265 5.86722329 3.13371277 8.94525146 C3.13797775 9.96578613 3.14224274 10.9863208 3.14663696 12.03778076 C3.14618378 13.15678772 3.14573059 14.27579468 3.14526367 15.42871094 C3.14862228 16.60784058 3.1519809 17.78697021 3.15544128 19.00183105 C3.16332141 22.23756742 3.16661939 25.4732653 3.16725707 28.70901012 C3.16796795 30.73209851 3.17010304 32.75518019 3.17275429 34.77826691 C3.18200875 41.84078905 3.18608925 48.90329231 3.18530273 55.96582031 C3.18470267 62.54080893 3.19524027 69.11571531 3.2110464 75.69068313 C3.22414356 81.34091633 3.22948568 86.99112275 3.22884732 92.64137101 C3.22859287 96.01350433 3.23141439 99.38556465 3.24202538 102.7576828 C3.25182669 106.52309474 3.24894625 110.28829557 3.24291992 114.05371094 C3.24853943 115.16462097 3.25415894 116.27553101 3.25994873 117.42010498 C3.22870701 125.10534401 2.67141086 131.57681007 -2 138 C-2.66 138 -3.32 138 -4 138 C-3.79503906 137.39671875 -3.59007812 136.7934375 -3.37890625 136.171875 C-2.97478516 134.97304688 -2.97478516 134.97304688 -2.5625 133.75 C-2.16224609 132.56664062 -2.16224609 132.56664062 -1.75390625 131.359375 C-0.47901564 127.3695619 0.12448118 123.98325239 0.12025452 119.77349854 C0.12162918 118.71623062 0.12300385 117.65896271 0.12442017 116.56965637 C0.12082489 115.41519516 0.11722961 114.26073395 0.11352539 113.07128906 C0.11367142 111.85150864 0.11381744 110.63172821 0.1139679 109.37498474 C0.1133908 106.03439478 0.10837708 102.6938667 0.10139394 99.3532877 C0.09514071 95.86058802 0.09455504 92.36788751 0.09336853 88.87518311 C0.09026103 82.26314728 0.08205545 75.651128 0.07201904 69.03909945 C0.06083988 61.51073626 0.05534291 53.98237228 0.05032361 46.45400286 C0.03987237 30.96932566 0.02228415 15.48466496 0 0 Z " fill="#D9F8FA" transform="translate(292,95)"/>
<path d="M0 0 C0.66 0 1.32 0 2 0 C2 34.65 2 69.3 2 105 C-22.75 105 -47.5 105 -73 105 C-73.4375 78.625 -73.4375 78.625 -73.56811523 70.29541016 C-73.60622646 68.12662086 -73.64469459 65.9578378 -73.68359375 63.7890625 C-73.70006958 62.6549292 -73.71654541 61.5207959 -73.73352051 60.35229492 C-73.75370239 59.2764917 -73.77388428 58.20068848 -73.79467773 57.09228516 C-73.81022202 56.15518707 -73.8257663 55.21808899 -73.84178162 54.25259399 C-73.85779985 51.96486209 -73.85779985 51.96486209 -75 50 C-73.68 50 -72.36 50 -71 50 C-71.33 67.82 -71.66 85.64 -72 104 C-47.91 104 -23.82 104 1 104 C0.67 69.68 0.34 35.36 0 0 Z " fill="#91D6DE" transform="translate(196,28)"/>
<path d="M0 0 C-3.2811302 2.18742014 -5.33084356 2.54442806 -9.1875 3.125 C-10.27417969 3.29257813 -11.36085938 3.46015625 -12.48046875 3.6328125 C-13.31191406 3.75398438 -14.14335938 3.87515625 -15 4 C-14.9627893 24.81919275 -14.90286376 45.63821069 -14.81609726 66.45725822 C-14.77633379 76.12450301 -14.74392763 85.7916667 -14.72900391 95.45898438 C-14.71597343 103.88768575 -14.68897316 112.3162085 -14.64538693 120.74480927 C-14.62280349 125.20531074 -14.60708745 129.66559215 -14.60811615 134.12615585 C-14.60886461 138.33040471 -14.59083968 142.53416771 -14.55883217 146.73829079 C-14.55036061 148.2756726 -14.54856449 149.81310909 -14.55419731 151.35050392 C-14.579033 159.17538407 -14.35072165 165.95220738 -10.75815201 173.07902718 C-10 175 -10 175 -11 178 C-14.83286124 172.25070814 -16.37653765 167.79797625 -16.36076355 160.8941803 C-16.36332682 160.21441318 -16.3658901 159.53464607 -16.36853105 158.83427995 C-16.37343955 156.57555145 -16.35702568 154.31750394 -16.34057617 152.05883789 C-16.33972926 150.43221045 -16.34020629 148.80558186 -16.34190369 147.17895508 C-16.34276256 142.77651626 -16.32515425 138.37432387 -16.30418181 133.97194219 C-16.28539708 129.36619019 -16.28366316 124.76043222 -16.28010559 120.15464783 C-16.2707904 111.43895706 -16.24618374 102.7233795 -16.21605712 94.00773853 C-16.18249674 84.08275078 -16.16602298 74.15775756 -16.15097082 64.23272717 C-16.11963372 43.82175498 -16.06688345 23.41088463 -16 3 C-14.58976835 2.31741696 -13.17311379 1.64809397 -11.75390625 0.984375 C-10.9657251 0.61022461 -10.17754395 0.23607422 -9.36547852 -0.14941406 C-5.84496195 -1.41533208 -3.57598355 -0.91301708 0 0 Z " fill="#6DC5D0" transform="translate(85,77)"/>
<path d="M0 0 C2 2 2 2 2.24609566 3.85468483 C2.24333028 4.99125558 2.24333028 4.99125558 2.24050903 6.15078735 C2.24325836 7.02019455 2.24600769 7.88960175 2.24884033 8.78535461 C2.24164978 9.74129013 2.23445923 10.69722565 2.22705078 11.68212891 C2.22734283 12.68703873 2.22763489 13.69194855 2.22793579 14.72731018 C2.22653856 18.06048107 2.21095882 21.39343049 2.1953125 24.7265625 C2.19158377 27.03298826 2.18873614 29.3394156 2.18673706 31.64584351 C2.17908959 37.72534536 2.15943154 43.80475211 2.1373291 49.88421631 C2.11689463 56.08425612 2.10774048 62.28431125 2.09765625 68.484375 C2.0761867 80.65629185 2.04203735 92.82813803 2 105 C1.67 105 1.34 105 1 105 C1 71.34 1 37.68 1 3 C-1.475 2.01 -1.475 2.01 -4 1 C-5.65973514 0.0558753 -7.31868265 -0.89017044 -8.95825195 -1.86889648 C-20.8850394 -8.98206567 -30.30805426 -10.5441258 -44 -11 C-44.66 -9.68 -45.32 -8.36 -46 -7 C-48.97 -7 -51.94 -7 -55 -7 C-38.5867204 -20.95128766 -15.33230471 -9.44868517 0 0 Z " fill="#6CC6D1" transform="translate(195,27)"/>
<path d="M0 0 C8.30226407 3.63337596 12.57515388 12.03227949 16 20 C16.97994309 22.93982926 17.13233505 24.85420776 17.14717102 27.91833496 C17.15432632 28.93308899 17.16148163 29.94784302 17.16885376 30.99334717 C17.17288712 32.66243134 17.17288712 32.66243134 17.17700195 34.36523438 C17.18357315 35.53793884 17.19014435 36.71064331 17.19691467 37.91888428 C17.21666778 41.81049956 17.22832076 45.70210133 17.23828125 49.59375 C17.24233045 50.93667114 17.24644742 52.27959209 17.25063133 53.62251282 C17.26968553 59.93738218 17.28391181 66.25223989 17.2922433 72.56713247 C17.30199416 79.8366555 17.32825586 87.10587229 17.36874419 94.37528753 C17.39901486 100.00519985 17.41372279 105.63502499 17.41702431 111.26501703 C17.41936391 114.62180754 17.43018408 117.97801266 17.45348549 121.33476257 C17.47792553 125.08995639 17.47690197 128.84435978 17.4699707 132.59960938 C17.48278076 133.69613831 17.49559082 134.79266724 17.50878906 135.92242432 C17.44897219 144.8582587 15.71748694 152.92573384 10 160 C10.74250597 155.91621717 11.82923301 151.98060777 13 148 C13.66 148 14.32 148 15 148 C15.14061491 132.05702639 15.24618733 116.1142222 15.31087303 100.17078114 C15.3417159 92.76671847 15.38371075 85.36304271 15.45263672 77.95922852 C15.51273478 71.50056179 15.55121859 65.04217548 15.56453097 58.58323687 C15.57230404 55.16806613 15.59036604 51.75369707 15.63438034 48.33878517 C16.16697769 28.77314277 16.16697769 28.77314277 9 11 C9 10.34 9 9.68 9 9 C8.01 8.67 7.02 8.34 6 8 C4.64172029 6.35360035 3.30745749 4.68704193 2 3 C1.34 2.67 0.68 2.34 0 2 C0 1.34 0 0.68 0 0 Z " fill="#72C4D0" transform="translate(276,75)"/>
<path d="M0 0 C3.70595247 1.23531749 4.11411047 2.32619216 6.0625 5.625 C6.56910156 6.46289062 7.07570312 7.30078125 7.59765625 8.1640625 C10.3398636 13.70958488 11.24999204 18.88016339 11.24050903 25.02989197 C11.24221788 25.70149198 11.24392673 26.37309198 11.24568737 27.06504351 C11.24895891 29.2959967 11.23801762 31.52664328 11.22705078 33.75756836 C11.22648616 35.36449171 11.22680422 36.97141557 11.22793579 38.57833862 C11.22850832 42.9270045 11.21677019 47.27555947 11.20278788 51.62419963 C11.19026387 56.17390422 11.1891087 60.72361151 11.18673706 65.27333069 C11.1805272 73.88274367 11.16412306 82.49210571 11.14403808 91.10149628 C11.12166371 100.90557616 11.11068178 110.70965852 11.10064721 120.51375759 C11.07975641 140.6758668 11.04459003 160.83793019 11 181 C10.67 181 10.34 181 10 181 C9.99761165 180.18462076 9.99522329 179.36924152 9.99276257 178.52915382 C9.93355575 158.66398285 9.8579693 138.79893263 9.76428509 118.9338932 C9.71937212 109.32719649 9.6799471 99.72053648 9.65356445 90.11376953 C9.63054792 81.73782925 9.59710912 73.36200554 9.55129844 64.98615777 C9.52741546 60.55363716 9.50865446 56.12123165 9.50238609 51.68864822 C9.49631289 47.51073356 9.47623284 43.33311321 9.44572449 39.15530777 C9.43697995 37.62759957 9.4332142 36.09985286 9.43499184 34.57212067 C9.44315151 24.31756282 9.16399022 14.53138439 2.8125 6 C0 2.16788321 0 2.16788321 0 0 Z " fill="#6CC3D0" transform="translate(240,59)"/>
<path d="M0 0 C0.99 0.495 0.99 0.495 2 1 C2 34 2 67 2 101 C4.31 102.32 6.62 103.64 9 105 C9 105.66 9 106.32 9 107 C9.99 107.33 10.98 107.66 12 108 C11.01 108.495 11.01 108.495 10 109 C7.87109375 108.0390625 7.87109375 108.0390625 5.4375 106.625 C4.63183594 106.16351563 3.82617188 105.70203125 2.99609375 105.2265625 C1 104 1 104 0 103 C-0.09527037 101.65927183 -0.1218877 100.31357497 -0.12025452 98.96946716 C-0.12162918 98.10143463 -0.12300385 97.2334021 -0.12442017 96.33906555 C-0.12082489 95.37953476 -0.11722961 94.42000397 -0.11352539 93.43139648 C-0.11367142 92.42663269 -0.11381744 91.4218689 -0.1139679 90.38665771 C-0.1132683 87.04811483 -0.10547374 83.70962695 -0.09765625 80.37109375 C-0.09579224 78.06323782 -0.09436826 75.75538149 -0.09336853 73.44752502 C-0.08954204 67.35982174 -0.07971065 61.27214214 -0.06866455 55.18444824 C-0.05845323 48.97778646 -0.05387151 42.77112087 -0.04882812 36.56445312 C-0.0380885 24.37629165 -0.02101052 12.18814779 0 0 Z " fill="#71C6D1" transform="translate(123,188)"/>
<path d="M0 0 C-6.32889115 3.67437337 -12.6627383 7.34008299 -19 11 C-19.92393555 11.53399414 -20.84787109 12.06798828 -21.79980469 12.61816406 C-24.55215869 14.20706243 -27.30697889 15.79160168 -30.0625 17.375 C-30.90514404 17.86194336 -31.74778809 18.34888672 -32.6159668 18.85058594 C-38.31062579 22.11556111 -44.09967584 25.12389565 -50 28 C-50 27.34 -50 26.68 -50 26 C-49.43152344 25.68546875 -48.86304688 25.3709375 -48.27734375 25.046875 C-41.32490545 21.19343674 -34.42307031 17.35291868 -27.796875 12.953125 C-26 12 -26 12 -23 12 C-23 11.34 -23 10.68 -23 10 C-20 8 -20 8 -17 8 C-17 7.34 -17 6.68 -17 6 C-15.5437455 5.32880451 -14.08492133 4.66318193 -12.625 4 C-11.81289063 3.62875 -11.00078125 3.2575 -10.1640625 2.875 C-8 2 -8 2 -6 2 C-6 1.34 -6 0.68 -6 0 C-2.25 -1.125 -2.25 -1.125 0 0 Z " fill="#79CBD4" transform="translate(274,247)"/>
<path d="M0 0 C2.64 0.33 5.28 0.66 8 1 C8.33 1.99 8.66 2.98 9 4 C20.70903934 4.52168987 30.77395408 3.38443376 42 0 C38.17330931 4.28778292 33.13901192 5.61696581 27.5390625 6.30029297 C25.01882493 6.43594456 22.52358154 6.45885338 20 6.4375 C19.16210938 6.45748047 18.32421875 6.47746094 17.4609375 6.49804688 C11.33392224 6.4933046 6.26083892 5.23634467 1 2 C0.67 1.34 0.34 0.68 0 0 Z " fill="#7BCCD5" transform="translate(139,299)"/>
<path d="M0 0 C3.49049637 3.39766402 6.67741794 6.9086365 9.75 10.6875 C10.52859375 11.64011719 11.3071875 12.59273438 12.109375 13.57421875 C14 16 14 16 15 18 C10.23448987 16.62394084 6.2751447 14.53221934 2.125 11.875 C1.53203125 11.50246094 0.9390625 11.12992187 0.328125 10.74609375 C-1.1181343 9.83635 -2.55958046 8.91896202 -4 8 C-0.28125 6.8828125 -0.28125 6.8828125 2.25 7.9375 C2.8275 8.288125 3.405 8.63875 4 9 C4 8.01 4 7.02 4 6 C3.34 6 2.68 6 2 6 C1.34 4.02 0.68 2.04 0 0 Z " fill="#7ACED8" transform="translate(75,254)"/>
<path d="M0 0 C3.49547406 1.30770395 6.57927449 2.84892979 9.75 4.8125 C14.43177222 7.67358302 19.18457285 10.37128856 24 13 C24 13.33 24 13.66 24 14 C21.625 14.1875 21.625 14.1875 19 14 C18.34 13.01 17.68 12.02 17 11 C13.94570927 9.78715124 13.94570927 9.78715124 11 9 C11 9.99 11 10.98 11 12 C9.16364422 10.19047409 7.33083792 8.37759362 5.5 6.5625 C4.97535156 6.04623047 4.45070312 5.52996094 3.91015625 4.99804688 C2.58775448 3.68423213 1.29164432 2.34406495 0 1 C0 0.67 0 0.34 0 0 Z " fill="#78CBD6" transform="translate(228,47)"/>
<path d="M0 0 C0 0.33 0 0.66 0 1 C-7.59 0.67 -15.18 0.34 -23 0 C-23.66 1.32 -24.32 2.64 -25 4 C-27.97 4 -30.94 4 -34 4 C-24.50497544 -4.07077088 -11.24321531 -2.58041007 0 0 Z " fill="#87D0D8" transform="translate(174,16)"/>
<path d="M0 0 C0 0.99 0 1.98 0 3 C-1.0725 3.598125 -2.145 4.19625 -3.25 4.8125 C-5.33651457 5.99821009 -7.21429363 7.1638716 -9.125 8.625 C-11.30170603 10.22125109 -13.48832085 11.03396956 -16 12 C-16.99 12.66 -17.98 13.32 -19 14 C-21.1875 13.625 -21.1875 13.625 -23 13 C-19.54216583 11.01996027 -16.08364869 9.04111656 -12.625 7.0625 C-11.64015625 6.49853516 -10.6553125 5.93457031 -9.640625 5.35351562 C-8.69960937 4.81533203 -7.75859375 4.27714844 -6.7890625 3.72265625 C-5.91975098 3.22515869 -5.05043945 2.72766113 -4.15478516 2.21508789 C-2.78770167 1.44418663 -1.40376807 0.70188404 0 0 Z " fill="#7BCFD7" transform="translate(79,54)"/>
<path d="M0 0 C8.30226407 3.63337596 12.57515388 12.03227949 16 20 C17.28317892 23.84953676 17.06643637 26.94738135 17 31 C16.67 31 16.34 31 16 31 C15.91363281 30.39414063 15.82726562 29.78828125 15.73828125 29.1640625 C14.7322595 23.16485021 12.94339087 18.36480645 10.0234375 13.03125 C9 11 9 11 9 9 C8.01 8.67 7.02 8.34 6 8 C4.64172029 6.35360035 3.30745749 4.68704193 2 3 C1.34 2.67 0.68 2.34 0 2 C0 1.34 0 0.68 0 0 Z " fill="#81CED5" transform="translate(276,75)"/>
<path d="M0 0 C2 2 2 2 2.125 4.625 C2.08375 5.40875 2.0425 6.1925 2 7 C2.66 7.33 3.32 7.66 4 8 C4.268125 9.11375 4.53625 10.2275 4.8125 11.375 C5.65776427 15.13919929 5.65776427 15.13919929 8.625 16.9375 C9.40875 17.288125 10.1925 17.63875 11 18 C10.67 19.65 10.34 21.3 10 23 C3.90193139 17.91827615 1.2484804 11.182562 0.25 3.375 C0.1675 2.26125 0.085 1.1475 0 0 Z " fill="#7BCAD4" transform="translate(27,216)"/>
<path d="M0 0 C6.33081723 0.44129021 10.88327379 2.67036099 16.375 5.75 C17.19355469 6.18054688 18.01210937 6.61109375 18.85546875 7.0546875 C24.75004745 10.31967802 24.75004745 10.31967802 26.0390625 13.828125 C26.01972656 14.90320313 26.01972656 14.90320313 26 16 C25.67 15.01 25.34 14.02 25 13 C23.35718155 12.27655701 21.68347626 11.62300074 20 11 C17.05868615 9.34873609 14.15423804 7.65291376 11.25976562 5.921875 C7.5968689 3.77617812 4.07334397 2.19401839 0 1 C0 0.67 0 0.34 0 0 Z " fill="#78CAD2" transform="translate(171,17)"/>
<path d="M0 0 C0 0.66 0 1.32 0 2 C-0.99 2 -1.98 2 -3 2 C-3.33 2.99 -3.66 3.98 -4 5 C-4.99 5 -5.98 5 -7 5 C-7.33 5.99 -7.66 6.98 -8 8 C-10.625 9.0625 -10.625 9.0625 -14 10 C-15.29177818 10.37461567 -16.58344676 10.74960953 -17.875 11.125 C-19.421875 11.558125 -19.421875 11.558125 -21 12 C-19.64678208 9.29356416 -18.15898029 8.96306404 -15.4375 7.6875 C-11.28308038 5.68479556 -7.4299985 3.47284736 -3.59375 0.91796875 C-2 0 -2 0 0 0 Z " fill="#7DCFD8" transform="translate(140,20)"/>
<path d="M0 0 C1.32 0 2.64 0 4 0 C7 4.07142857 7 4.07142857 7 7 C7.66 7 8.32 7 9 7 C12.3203125 12.078125 12.3203125 12.078125 13 14 C12.1171875 16.234375 12.1171875 16.234375 11 18 C10.62488281 17.20335938 10.24976563 16.40671875 9.86328125 15.5859375 C7.06260092 9.78704774 4.43192833 4.69262999 0 0 Z " fill="#E2FBFD" transform="translate(280,77)"/>
<path d="M0 0 C1.16337891 0.00966797 2.32675781 0.01933594 3.52539062 0.02929688 C4.74033203 0.05443359 5.95527344 0.07957031 7.20703125 0.10546875 C8.43357422 0.11900391 9.66011719 0.13253906 10.92382812 0.14648438 C13.95616789 0.18188134 16.98763121 0.23126115 20.01953125 0.29296875 C20.01953125 0.62296875 20.01953125 0.95296875 20.01953125 1.29296875 C19.12814453 1.33055298 19.12814453 1.33055298 18.21875 1.36889648 C15.48552118 1.48605763 12.75253758 1.60823148 10.01953125 1.73046875 C9.08496094 1.76978516 8.15039062 1.80910156 7.1875 1.84960938 C1.74765002 2.09687528 -3.58741452 2.53616043 -8.98046875 3.29296875 C-6.35613804 -0.15967879 -4.19378209 -0.06137242 0 0 Z " fill="#8ED5E0" transform="translate(93.98046875,74.70703125)"/>
<path d="M0 0 C3.77254215 1.25751405 4.17480476 2.49400825 6.125 5.875 C6.64320313 6.75929688 7.16140625 7.64359375 7.6953125 8.5546875 C9.98941939 12.85442078 10.09089572 16.1825268 10 21 C8.4783107 18.08455103 7.27338079 15.14224849 6.125 12.0625 C4.57942619 8.11721947 2.80830969 5.20949679 0 2 C0 1.34 0 0.68 0 0 Z " fill="#7ECDD2" transform="translate(240,59)"/>
<path d="M0 0 C0.33 0 0.66 0 1 0 C1.50604984 6.98629919 1.0333905 11.20200116 -3 17 C-3.66 17 -4.32 17 -5 17 C-4.80664062 16.443125 -4.61328125 15.88625 -4.4140625 15.3125 C-2.68625575 10.24882873 -1.2306933 5.20677935 0 0 Z " fill="#DFFBFC" transform="translate(293,216)"/>
<path d="M0 0 C1 3 1 3 -0.125 5.4375 C-2.64827509 8.88597596 -5.1925743 11.41380788 -9.3125 12.75 C-10.1478125 12.87375 -10.1478125 12.87375 -11 13 C-10.29875 12.34 -9.5975 11.68 -8.875 11 C-5.50583305 7.65014059 -2.77531275 3.84347436 0 0 Z " fill="#E1FAFB" transform="translate(287,233)"/>
<path d="M0 0 C4.30764815 1.56641751 8.06171464 3.68336156 12 6 C10.68 6.99 9.36 7.98 8 9 C6.66368764 7.6905332 5.33102075 6.37734515 4 5.0625 C3.2575 4.33160156 2.515 3.60070313 1.75 2.84765625 C0 1 0 1 0 0 Z " fill="#94CED5" transform="translate(228,47)"/>
<path d="M0 0 C6.93 3.96 6.93 3.96 14 8 C10 9 10 9 8 8 C8 7.34 8 6.68 8 6 C7.01 6 6.02 6 5 6 C5 5.34 5 4.68 5 4 C4.360625 3.896875 3.72125 3.79375 3.0625 3.6875 C2.381875 3.460625 1.70125 3.23375 1 3 C0.67 2.01 0.34 1.02 0 0 Z " fill="#DFFBFC" transform="translate(63,257)"/>
<path d="M0 0 C0.66 0.33 1.32 0.66 2 1 C0.04480616 2.17192047 -1.9142539 3.3373929 -3.875 4.5 C-4.96554688 5.1496875 -6.05609375 5.799375 -7.1796875 6.46875 C-10 8 -10 8 -12 8 C-12 7.01 -12 6.02 -12 5 C-11.30132812 4.72285156 -10.60265625 4.44570313 -9.8828125 4.16015625 C-8.97273437 3.79792969 -8.06265625 3.43570312 -7.125 3.0625 C-6.22007812 2.70285156 -5.31515625 2.34320313 -4.3828125 1.97265625 C-2.03862333 1.05098738 -2.03862333 1.05098738 0 0 Z " fill="#79CCD5" transform="translate(200,287)"/>
<path d="M0 0 C-3.2811302 2.18742014 -5.33084356 2.54442806 -9.1875 3.125 C-10.27417969 3.29257813 -11.36085938 3.46015625 -12.48046875 3.6328125 C-13.31191406 3.75398438 -14.14335938 3.87515625 -15 4 C-15 3.34 -15 2.68 -15 2 C-9.32010626 -0.49118146 -6.05525768 -1.38766322 0 0 Z " fill="#7BCCD7" transform="translate(85,77)"/>
<path d="M0 0 C1.65 0 3.3 0 5 0 C5.33 0.99 5.66 1.98 6 3 C7.93618425 3.67156616 7.93618425 3.67156616 10 4 C10.66 4.33 11.32 4.66 12 5 C12 5.66 12 6.32 12 7 C7.69235185 5.43358249 3.93828536 3.31663844 0 1 C0 0.67 0 0.34 0 0 Z " fill="#7CCDD6" transform="translate(48,248)"/>
<path d="M0 0 C0.66 0.33 1.32 0.66 2 1 C-2.30769231 5.92307692 -2.30769231 5.92307692 -5.8125 6.3125 C-6.8953125 6.1578125 -6.8953125 6.1578125 -8 6 C-5.63404067 3.38499232 -3.13950774 1.61000397 0 0 Z " fill="#E4FBFC" transform="translate(232,270)"/>
<path d="M0 0 C-2.74093665 1.8272911 -5.13825324 2.93698178 -8.1875 4.125 C-9.08855469 4.47820313 -9.98960937 4.83140625 -10.91796875 5.1953125 C-11.94857422 5.59363281 -11.94857422 5.59363281 -13 6 C-13 5.01 -13 4.02 -13 3 C-8.37802694 0.78145293 -5.23175837 -0.38281159 0 0 Z " fill="#E5FCFE" transform="translate(150,15)"/>
<path d="M0 0 C-1 3 -1 3 -3.3125 4.75 C-6.32190521 6.14972335 -6.98041673 5.95287489 -10 5 C-8.71186658 4.16121545 -7.41936744 3.32913217 -6.125 2.5 C-5.40570313 2.0359375 -4.68640625 1.571875 -3.9453125 1.09375 C-2 0 -2 0 0 0 Z " fill="#79CDD4" transform="translate(119,32)"/>
<path d="M0 0 C-1 1.5 -1 1.5 -3 3 C-5.71846235 3.27345479 -8.25677199 3.13491285 -11 3 C-7.48550811 -0.37391222 -4.73940561 -0.27342725 0 0 Z " fill="#78CDD9" transform="translate(151,17)"/>
<path d="M0 0 C2.475 0.99 2.475 0.99 5 2 C4.67 3.65 4.34 5.3 4 7 C1 5 1 5 0.3125 2.375 C0.209375 1.59125 0.10625 0.8075 0 0 Z " fill="#6DCED5" transform="translate(33,232)"/>
<path d="M0 0 C0.66 0.33 1.32 0.66 2 1 C-0.51830747 4.12270126 -1.7261549 4.94523098 -5.75 5.75 C-7.35875 5.87375 -7.35875 5.87375 -9 6 C-6.12050853 3.76039553 -3.23257974 1.70135776 0 0 Z " fill="#7DCED6" transform="translate(89,48)"/>
<path d="M0 0 C0 0.66 0 1.32 0 2 C-4.15267176 5.11450382 -4.15267176 5.11450382 -7.3125 4.6875 C-7.869375 4.460625 -8.42625 4.23375 -9 4 C-2.25 0 -2.25 0 0 0 Z " fill="#E1FBFC" transform="translate(224,276)"/>
<path d="M0 0 C4.875 4.75 4.875 4.75 6 7 C3.97954558 6.39816251 1.97888961 5.72693904 0 5 C-0.33 4.34 -0.66 3.68 -1 3 C-0.67 2.01 -0.34 1.02 0 0 Z " fill="#8BCDD2" transform="translate(84,265)"/>
<path d="M0 0 C-2.64 1.65 -5.28 3.3 -8 5 C-8.33 4.01 -8.66 3.02 -9 2 C-3.375 -1.125 -3.375 -1.125 0 0 Z " fill="#DCF8FA" transform="translate(49,72)"/>
<path d="M0 0 C-6.75 4 -6.75 4 -9 4 C-9 3.34 -9 2.68 -9 2 C-3.375 -1.125 -3.375 -1.125 0 0 Z " fill="#DAFAFB" transform="translate(114,35)"/>
</svg>
